<?xml version="1.0" encoding="UTF-8" standalone="no"?>
<!-- Created with Inkscape (http://www.inkscape.org/) -->

<svg
   width="210mm"
   height="297mm"
   viewBox="0 0 210 297"
   version="1.1"
   id="svg185"
   xml:space="preserve"
   sodipodi:docname="algo_example.svg"
   inkscape:version="1.2.2 (b0a8486541, 2022-12-01)"
   xmlns:inkscape="http://www.inkscape.org/namespaces/inkscape"
   xmlns:sodipodi="http://sodipodi.sourceforge.net/DTD/sodipodi-0.dtd"
   xmlns="http://www.w3.org/2000/svg"
   xmlns:svg="http://www.w3.org/2000/svg"><sodipodi:namedview
     id="namedview187"
     pagecolor="#ffffff"
     bordercolor="#000000"
     borderopacity="0.25"
     inkscape:showpageshadow="2"
     inkscape:pageopacity="0.0"
     inkscape:pagecheckerboard="0"
     inkscape:deskcolor="#d1d1d1"
     inkscape:document-units="mm"
     showgrid="false"
     showguides="true"
     inkscape:zoom="0.84096521"
     inkscape:cx="335.32897"
     inkscape:cy="337.70719"
     inkscape:window-width="1280"
     inkscape:window-height="1011"
     inkscape:window-x="20"
     inkscape:window-y="20"
     inkscape:window-maximized="0"
     inkscape:current-layer="layer1" /><defs
     id="defs182"><marker
       style="overflow:visible"
       id="TriangleStart"
       refX="0"
       refY="0"
       orient="auto-start-reverse"
       inkscape:stockid="TriangleStart"
       markerWidth="5.3244081"
       markerHeight="6.155385"
       viewBox="0 0 5.3244081 6.1553851"
       inkscape:isstock="true"
       inkscape:collect="always"
       preserveAspectRatio="xMidYMid"><path
         transform="scale(0.5)"
         style="fill:context-stroke;fill-rule:evenodd;stroke:context-stroke;stroke-width:1pt"
         d="M 5.77,0 -2.88,5 V -5 Z"
         id="path135" /></marker><marker
       style="overflow:visible"
       id="TriangleStart-4"
       refX="0"
       refY="0"
       orient="auto-start-reverse"
       inkscape:stockid="TriangleStart"
       markerWidth="5.3244081"
       markerHeight="6.155385"
       viewBox="0 0 5.3244081 6.1553851"
       inkscape:isstock="true"
       inkscape:collect="always"
       preserveAspectRatio="xMidYMid"><path
         transform="scale(0.5)"
         style="fill:context-stroke;fill-rule:evenodd;stroke:context-stroke;stroke-width:1pt"
         d="M 5.77,0 -2.88,5 V -5 Z"
         id="path135-5" /></marker></defs><g
     inkscape:label="Layer 1"
     inkscape:groupmode="layer"
     id="layer1"><g
       id="g2476"
       inkscape:export-filename="algo_example.png"
       inkscape:export-xdpi="96"
       inkscape:export-ydpi="96"><path
         d="m 32.565307,72.312578 h 12.221527 c 0.421871,0 0.763852,0.46361 0.763852,1.035497 v 4.142012 c 0,0.57189 -0.341981,1.035502 -0.763852,1.035502 H 32.565307 c -0.421871,0 -0.763845,-0.463612 -0.763845,-1.035502 v -4.142012 c 0,-0.571887 0.341974,-1.035497 0.763845,-1.035497 m 3.819227,4.142007 h 0.763845 v -2.071004 h -0.763845 v 2.071004 m -3.055382,-2.071004 v 2.071004 h 1.527693 v -2.071004 h -1.527693"
         id="path514-5-6"
         sodipodi:nodetypes="csssssssccccccccccc"
         style="fill:#4d4d4d;stroke-width:0.889363" /><path
         d="m 33.212612,50.496743 h 12.221522 c 0.421876,0 0.763853,0.463611 0.763853,1.035497 v 4.142012 c 0,0.571891 -0.341977,1.035502 -0.763853,1.035502 H 33.212612 c -0.421872,0 -0.763845,-0.463611 -0.763845,-1.035502 V 51.53224 c 0,-0.571886 0.341973,-1.035497 0.763845,-1.035497 m 3.819227,4.142008 h 0.763844 v -2.071004 h -0.763844 v 2.071004 m -3.055383,-2.071004 v 2.071004 h 1.527693 v -2.071004 h -1.527693"
         id="path514-5-6-3"
         sodipodi:nodetypes="csssssssccccccccccc"
         style="fill:#4d4d4d;stroke-width:0.889363" /><path
         d="m 23.059654,100.1068 a 1.4305029,1.4305029 0 0 0 -1.430514,1.43051 c 0,0.35762 0.128762,0.67233 0.336178,0.92267 l -2.267349,6.22985 h 1.52349 l 1.838195,-5.05684 1.838191,5.05684 h 1.52349 l -2.267353,-6.22985 c 0.207429,-0.25034 0.336178,-0.56505 0.336178,-0.92267 a 1.4305029,1.4305029 0 0 0 -1.430506,-1.43051 m 0,-1.430506 a 2.8610059,2.8610059 0 0 1 2.860998,2.861016 c 0,0.35762 -0.07152,0.71524 -0.200269,1.04426 l 0.629432,1.71661 c 0.622259,-0.75102 1.001352,-1.70945 1.001352,-2.76087 a 4.291509,4.291509 0 0 0 -4.291513,-4.291513 4.291509,4.291509 0 0 0 -4.291507,4.291513 c 0,1.05142 0.379092,2.00985 1.001352,2.76087 l 0.629418,-1.71661 c -0.128736,-0.32902 -0.200265,-0.68664 -0.200265,-1.04426 a 2.8610059,2.8610059 0 0 1 2.861002,-2.861016 m 0,-2.861003 a 5.7220121,5.7220121 0 0 1 5.722014,5.722019 c 0,1.68798 -0.715257,3.21862 -1.888269,4.24859 l 0.514988,1.4305 c 1.7023,-1.30891 2.803773,-3.36883 2.803773,-5.67909 a 7.1525151,7.1525151 0 0 0 -7.152506,-7.152528 7.1525151,7.1525151 0 0 0 -7.15251,7.152528 c 0,2.31026 1.101478,4.37018 2.803783,5.67909 l 0.514987,-1.4305 c -1.173025,-1.02997 -1.888282,-2.56061 -1.888282,-4.24859 a 5.7220121,5.7220121 0 0 1 5.722022,-5.722019 z"
         id="path257-3"
         style="fill:#4d4d4d;stroke-width:0.715253" /><path
         d="m 48.309393,100.15601 a 1.4305029,1.4305029 0 0 0 -1.430514,1.43051 c 0,0.35762 0.128762,0.67232 0.336178,0.92267 l -2.267349,6.22984 h 1.52349 l 1.838195,-5.05683 1.838191,5.05683 h 1.523486 l -2.267349,-6.22984 c 0.207429,-0.25035 0.336178,-0.56505 0.336178,-0.92267 a 1.4305029,1.4305029 0 0 0 -1.430506,-1.43051 m 0,-1.430509 a 2.8610059,2.8610059 0 0 1 2.860994,2.861019 c 0,0.35762 -0.07152,0.71524 -0.20027,1.04426 l 0.629432,1.71661 c 0.62226,-0.75102 1.001352,-1.70945 1.001352,-2.76087 a 4.291509,4.291509 0 0 0 -4.291508,-4.291516 4.291509,4.291509 0 0 0 -4.291508,4.291516 c 0,1.05142 0.379093,2.00985 1.001353,2.76087 l 0.629418,-1.71661 c -0.128736,-0.32902 -0.200265,-0.68664 -0.200265,-1.04426 a 2.8610059,2.8610059 0 0 1 2.861002,-2.861019 m 0,-2.861002 a 5.7220121,5.7220121 0 0 1 5.722009,5.722021 c 0,1.68798 -0.715257,3.21862 -1.888269,4.24858 l 0.514988,1.4305 c 1.7023,-1.30891 2.803774,-3.36883 2.803774,-5.67908 a 7.1525151,7.1525151 0 0 0 -7.152502,-7.152531 7.1525151,7.1525151 0 0 0 -7.15251,7.152531 c 0,2.31025 1.101478,4.37017 2.803783,5.67908 l 0.514987,-1.4305 c -1.173025,-1.02996 -1.888282,-2.5606 -1.888282,-4.24858 a 5.7220121,5.7220121 0 0 1 5.722022,-5.722021 z"
         id="path257-3-6"
         style="fill:#4d4d4d;stroke-width:0.715253" /><path
         d="m 45.086842,122.00895 q -0.139706,0 -0.244483,-0.10478 -0.104781,-0.10478 -0.104781,-0.24449 v -4.424 q 0,-0.13971 0.104781,-0.24449 0.104777,-0.10477 0.244483,-0.10477 h 2.561271 q 0.139706,0 0.244483,0.10477 0.104781,0.10478 0.104781,0.24449 v 4.424 q 0,0.13971 -0.104781,0.24449 -0.104777,0.10478 -0.244483,0.10478 z m 0,-0.52389 v 0.17462 h 2.561271 v -0.17462 z m 0,-0.34927 h 2.561271 v -3.37622 h -2.561271 z m 0,-3.72548 h 2.561271 v -0.17463 h -2.561271 z m 0,0 v -0.17463 z m 0,4.07475 v 0.17462 z"
         id="path351"
         style="fill:#4d4d4d;stroke-width:0.00582108" /><path
         d="m 53.426092,123.69075 q -0.139705,0 -0.244482,-0.10477 -0.104782,-0.10479 -0.104782,-0.24449 v -4.42401 q 0,-0.1397 0.104782,-0.24448 0.104777,-0.10478 0.244482,-0.10478 h 2.561272 q 0.139705,0 0.244482,0.10478 0.104781,0.10478 0.104781,0.24448 v 4.42401 q 0,0.1397 -0.104781,0.24449 -0.104777,0.10477 -0.244482,0.10477 z m 0,-0.52389 v 0.17463 h 2.561272 v -0.17463 z m 0,-0.34926 h 2.561272 v -3.37622 h -2.561272 z m 0,-3.72549 h 2.561272 v -0.17463 h -2.561272 z m 0,0 v -0.17463 z m 0,4.07475 v 0.17463 z"
         id="path351-7"
         style="fill:#4d4d4d;stroke-width:0.00582108" /><path
         d="m 30.803965,121.72775 q -0.139706,0 -0.244483,-0.10478 -0.104781,-0.10478 -0.104781,-0.24449 v -4.424 q 0,-0.13971 0.104781,-0.24449 0.104777,-0.10478 0.244483,-0.10478 h 2.561271 q 0.139706,0 0.244483,0.10478 0.104781,0.10478 0.104781,0.24449 v 4.424 q 0,0.13971 -0.104781,0.24449 -0.104777,0.10478 -0.244483,0.10478 z m 0,-0.5239 v 0.17463 h 2.561271 v -0.17463 z m 0,-0.34926 h 2.561271 v -3.37622 h -2.561271 z m 0,-3.72548 h 2.561271 v -0.17463 h -2.561271 z m 0,0 v -0.17463 z m 0,4.07474 v 0.17463 z"
         id="path351-5"
         style="fill:#4d4d4d;stroke-width:0.00582108" /><path
         d="m 24.443402,129.13038 q -0.139706,0 -0.244483,-0.10478 -0.104781,-0.10478 -0.104781,-0.24448 v -4.42401 q 0,-0.1397 0.104781,-0.24449 0.104777,-0.10477 0.244483,-0.10477 h 2.561271 q 0.139705,0 0.244482,0.10477 0.104782,0.10479 0.104782,0.24449 v 4.42401 q 0,0.1397 -0.104782,0.24448 -0.104777,0.10478 -0.244482,0.10478 z m 0,-0.52389 v 0.17463 h 2.561271 v -0.17463 z m 0,-0.34927 h 2.561271 V 124.881 h -2.561271 z m 0,-3.72548 h 2.561271 v -0.17463 h -2.561271 z m 0,0 v -0.17463 z m 0,4.07475 v 0.17463 z"
         id="path351-3"
         style="fill:#4d4d4d;stroke-width:0.00582108" /><path
         d="m 16.535148,124.26559 q -0.139705,0 -0.244482,-0.10478 -0.104782,-0.10478 -0.104782,-0.24448 v -4.42401 q 0,-0.1397 0.104782,-0.24449 0.104777,-0.10477 0.244482,-0.10477 h 2.561271 q 0.139706,0 0.244483,0.10477 0.104781,0.10479 0.104781,0.24449 v 4.42401 q 0,0.1397 -0.104781,0.24448 -0.104777,0.10478 -0.244483,0.10478 z m 0,-0.52389 v 0.17463 h 2.561271 v -0.17463 z m 0,-0.34927 h 2.561271 v -3.37621 h -2.561271 z m 0,-3.72548 h 2.561271 v -0.17463 h -2.561271 z m 0,0 v -0.17463 z m 0,4.07475 v 0.17463 z"
         id="path351-56"
         style="fill:#4d4d4d;stroke-width:0.00582108" /><path
         d="m 6.9602351,120.01891 q -0.139706,0 -0.244483,-0.10478 -0.104781,-0.10478 -0.104781,-0.24449 v -4.424 q 0,-0.13971 0.104781,-0.24449 0.104777,-0.10478 0.244483,-0.10478 h 2.561271 q 0.139706,0 0.244483,0.10478 0.104781,0.10478 0.104781,0.24449 v 4.424 q 0,0.13971 -0.104781,0.24449 -0.104777,0.10478 -0.244483,0.10478 z m 0,-0.5239 v 0.17463 h 2.561271 v -0.17463 z m 0,-0.34926 h 2.561271 v -3.37622 h -2.561271 z m 0,-3.72548 h 2.561271 v -0.17463 h -2.561271 z m 0,0 v -0.17463 z m 0,4.07474 v 0.17463 z"
         id="path351-2"
         style="fill:#4d4d4d;stroke-width:0.00582108" /><path
         style="fill:#4d4d4d;stroke:#000000;stroke-width:0.380615;stroke-dasharray:0.380615, 0.380615;stroke-dashoffset:0;stroke-opacity:1"
         d="m 10.101602,114.72202 7.224185,-6.68254"
         id="path1031" /><path
         style="fill:#4d4d4d;stroke:#000000;stroke-width:0.380615;stroke-dasharray:0.380615, 0.380615;stroke-dashoffset:0;stroke-opacity:1"
         d="m 18.541385,118.76822 3.104764,-9.62365"
         id="path1764" /><path
         style="fill:#4d4d4d;stroke:#000000;stroke-width:0.380615;stroke-dasharray:0.380615, 0.380615;stroke-dashoffset:0;stroke-opacity:1"
         d="m 25.952172,123.54897 -0.599768,-14.3958"
         id="path1766" /><path
         style="fill:#800000;stroke:#ec0000;stroke-width:0.380615;stroke-dasharray:0.380615, 0.380615;stroke-dashoffset:0;stroke-opacity:1"
         d="m 31.76364,116.19802 -4.281742,-7.50734"
         id="path1768" /><path
         style="fill:#4d4d4d;stroke:#000000;stroke-width:0.380615;stroke-dasharray:0.380615, 0.380615;stroke-dashoffset:0;stroke-opacity:1"
         d="m 46.909667,116.08293 1.033583,-6.49097"
         id="path1770" /><path
         style="fill:#4d4d4d;stroke:#000000;stroke-width:0.380615;stroke-dasharray:0.380615, 0.380615;stroke-dashoffset:0;stroke-opacity:1"
         d="m 55.204335,117.71475 -5.68184,-8.06237"
         id="path1772" /><path
         style="fill:#4d4d4d;stroke:#000000;stroke-width:0.380615;stroke-dasharray:none;stroke-dashoffset:0;stroke-opacity:1"
         d="M 26.183693,93.299716 36.296675,80.195723"
         id="path1774" /><path
         style="fill:#4d4d4d;stroke:#000000;stroke-width:0.380615;stroke-dasharray:none;stroke-dashoffset:0;stroke-opacity:1"
         d="M 47.790789,92.994181 39.769517,80.422847"
         id="path1776" /><path
         style="fill:#4d4d4d;stroke:#000000;stroke-width:0.380615;stroke-dasharray:none;stroke-dashoffset:0;stroke-opacity:1"
         d="M 38.57603,71.491995 V 57.982964"
         id="path1778" /></g><g
       id="g2497"
       transform="translate(2.500309,-0.934414)"><path
         d="m 97.936892,73.246991 h 12.221528 c 0.42187,0 0.76385,0.46361 0.76385,1.035498 V 78.4245 c 0,0.57189 -0.34198,1.035502 -0.76385,1.035502 H 97.936892 c -0.42187,0 -0.76384,-0.463612 -0.76384,-1.035502 v -4.142011 c 0,-0.571888 0.34197,-1.035498 0.76384,-1.035498 m 3.819228,4.142008 h 0.76384 v -2.071004 h -0.76384 v 2.071004 m -3.055378,-2.071004 v 2.071004 h 1.527688 v -2.071004 h -1.527688"
         id="path514-5-6-37"
         sodipodi:nodetypes="csssssssccccccccccc"
         style="fill:#4d4d4d;stroke-width:0.889363" /><path
         d="m 98.584202,51.431157 h 12.221518 c 0.42187,0 0.76385,0.463611 0.76385,1.035496 v 4.142013 c 0,0.57189 -0.34198,1.035501 -0.76385,1.035501 H 98.584202 c -0.42188,0 -0.76385,-0.463611 -0.76385,-1.035501 v -4.142013 c 0,-0.571885 0.34197,-1.035496 0.76385,-1.035496 m 3.819218,4.142007 h 0.76385 v -2.071003 h -0.76385 v 2.071004 m -3.055378,-2.071004 v 2.071004 h 1.527688 v -2.071004 h -1.527688"
         id="path514-5-6-3-5"
         sodipodi:nodetypes="csssssssccccccccccc"
         style="fill:#4d4d4d;stroke-width:0.889363" /><path
         d="m 88.431242,101.04122 a 1.4305029,1.4305029 0 0 0 -1.43052,1.4305 c 0,0.35762 0.12877,0.67233 0.33618,0.92267 l -2.26735,6.22985 h 1.52349 l 1.8382,-5.05684 1.83819,5.05684 h 1.52349 l -2.26735,-6.22985 c 0.20743,-0.25034 0.33617,-0.56505 0.33617,-0.92267 a 1.4305029,1.4305029 0 0 0 -1.4305,-1.4305 m 0,-1.430513 a 2.8610059,2.8610059 0 0 1 2.861,2.861013 c 0,0.35762 -0.0715,0.71524 -0.20027,1.04426 l 0.62943,1.71661 c 0.62226,-0.75102 1.00135,-1.70945 1.00135,-2.76087 a 4.291509,4.291509 0 0 0 -4.29151,-4.29151 4.291509,4.291509 0 0 0 -4.29151,4.29151 c 0,1.05142 0.37909,2.00985 1.00135,2.76087 l 0.62942,-1.71661 c -0.12873,-0.32902 -0.20026,-0.68664 -0.20026,-1.04426 a 2.8610059,2.8610059 0 0 1 2.861,-2.861013 m 0,-2.861003 a 5.7220121,5.7220121 0 0 1 5.72201,5.722016 c 0,1.68798 -0.71525,3.21862 -1.88827,4.24859 l 0.51499,1.4305 c 1.7023,-1.30891 2.80377,-3.36883 2.80377,-5.67909 a 7.1525151,7.1525151 0 0 0 -7.1525,-7.152525 7.1525151,7.1525151 0 0 0 -7.15251,7.152525 c 0,2.31026 1.10148,4.37018 2.80378,5.67909 l 0.51499,-1.4305 c -1.17303,-1.02997 -1.88828,-2.56061 -1.88828,-4.24859 a 5.7220121,5.7220121 0 0 1 5.72202,-5.722016 z"
         id="path257-3-9"
         style="fill:#4d4d4d;stroke-width:0.715253" /><path
         d="m 113.68098,101.09042 a 1.4305029,1.4305029 0 0 0 -1.43052,1.43051 c 0,0.35762 0.12877,0.67232 0.33618,0.92267 l -2.26735,6.22984 h 1.52349 l 1.8382,-5.05683 1.83819,5.05683 h 1.52349 l -2.26735,-6.22984 c 0.20743,-0.25035 0.33617,-0.56505 0.33617,-0.92267 a 1.4305029,1.4305029 0 0 0 -1.4305,-1.43051 m 0,-1.430505 a 2.8610059,2.8610059 0 0 1 2.86099,2.861015 c 0,0.35762 -0.0715,0.71524 -0.20027,1.04426 l 0.62943,1.71661 c 0.62226,-0.75102 1.00136,-1.70945 1.00136,-2.76087 a 4.291509,4.291509 0 0 0 -4.29151,-4.291512 4.291509,4.291509 0 0 0 -4.29151,4.291512 c 0,1.05142 0.37909,2.00985 1.00135,2.76087 l 0.62942,-1.71661 c -0.12874,-0.32902 -0.20026,-0.68664 -0.20026,-1.04426 a 2.8610059,2.8610059 0 0 1 2.861,-2.861015 m 0,-2.861002 a 5.7220121,5.7220121 0 0 1 5.72201,5.722017 c 0,1.68798 -0.71526,3.21862 -1.88827,4.24858 l 0.51499,1.4305 c 1.7023,-1.30891 2.80377,-3.36883 2.80377,-5.67908 a 7.1525151,7.1525151 0 0 0 -7.1525,-7.152527 7.1525151,7.1525151 0 0 0 -7.15251,7.152527 c 0,2.31025 1.10148,4.37017 2.80378,5.67908 l 0.51499,-1.4305 c -1.17303,-1.02996 -1.88828,-2.5606 -1.88828,-4.24858 a 5.7220121,5.7220121 0 0 1 5.72202,-5.722017 z"
         id="path257-3-6-2"
         style="fill:#4d4d4d;stroke-width:0.715253" /><path
         d="m 110.45843,122.94336 q -0.13971,0 -0.24449,-0.10478 -0.10478,-0.10478 -0.10478,-0.24449 v -4.424 q 0,-0.13971 0.10478,-0.24449 0.10478,-0.10477 0.24449,-0.10477 h 2.56127 q 0.1397,0 0.24448,0.10477 0.10478,0.10478 0.10478,0.24449 v 4.424 q 0,0.13971 -0.10478,0.24449 -0.10478,0.10478 -0.24448,0.10478 z m 0,-0.52389 v 0.17462 h 2.56127 v -0.17462 z m 0,-0.34927 h 2.56127 v -3.37622 h -2.56127 z m 0,-3.72548 h 2.56127 v -0.17463 h -2.56127 z m 0,0 v -0.17463 z m 0,4.07475 v 0.17462 z"
         id="path351-28"
         style="fill:#4d4d4d;stroke-width:0.00582108" /><path
         d="m 118.79768,124.62516 q -0.13971,0 -0.24449,-0.10477 -0.10478,-0.10479 -0.10478,-0.24449 v -4.42401 q 0,-0.1397 0.10478,-0.24448 0.10478,-0.10478 0.24449,-0.10478 h 2.56127 q 0.1397,0 0.24448,0.10478 0.10478,0.10478 0.10478,0.24448 v 4.42401 q 0,0.1397 -0.10478,0.24449 -0.10478,0.10477 -0.24448,0.10477 z m 0,-0.52389 v 0.17463 h 2.56127 v -0.17463 z m 0,-0.34926 h 2.56127 v -3.37622 h -2.56127 z m 0,-3.72549 h 2.56127 v -0.17463 h -2.56127 z m 0,0 v -0.17463 z m 0,4.07475 v 0.17463 z"
         id="path351-7-9"
         style="fill:#4d4d4d;stroke-width:0.00582108" /><path
         d="m 96.175552,122.66216 q -0.13971,0 -0.24448,-0.10478 -0.10478,-0.10478 -0.10478,-0.24449 v -4.424 q 0,-0.13971 0.10478,-0.24449 0.10477,-0.10478 0.24448,-0.10478 h 2.56127 q 0.13971,0 0.24448,0.10478 0.10478,0.10478 0.10478,0.24449 v 4.424 q 0,0.13971 -0.10478,0.24449 -0.10477,0.10478 -0.24448,0.10478 z m 0,-0.5239 v 0.17463 h 2.56127 v -0.17463 z m 0,-0.34926 h 2.56127 v -3.37622 h -2.56127 z m 0,-3.72548 h 2.56127 v -0.17463 h -2.56127 z m 0,0 v -0.17463 z m 0,4.07474 v 0.17463 z"
         id="path351-5-7"
         style="fill:#4d4d4d;stroke-width:0.00582108" /><path
         d="m 89.814992,130.06479 q -0.13971,0 -0.24449,-0.10478 -0.10478,-0.10478 -0.10478,-0.24448 v -4.42401 q 0,-0.1397 0.10478,-0.24449 0.10478,-0.10477 0.24449,-0.10477 h 2.56127 q 0.1397,0 0.24448,0.10477 0.10478,0.10479 0.10478,0.24449 v 4.42401 q 0,0.1397 -0.10478,0.24448 -0.10478,0.10478 -0.24448,0.10478 z m 0,-0.52389 v 0.17463 h 2.56127 v -0.17463 z m 0,-0.34927 h 2.56127 v -3.37622 h -2.56127 z m 0,-3.72548 h 2.56127 v -0.17463 h -2.56127 z m 0,0 v -0.17463 z m 0,4.07475 v 0.17463 z"
         id="path351-3-3"
         style="fill:#4d4d4d;stroke-width:0.00582108" /><path
         d="m 81.906732,125.2 q -0.1397,0 -0.24448,-0.10478 -0.10478,-0.10478 -0.10478,-0.24448 v -4.42401 q 0,-0.1397 0.10478,-0.24449 0.10478,-0.10477 0.24448,-0.10477 h 2.56127 q 0.13971,0 0.24449,0.10477 0.10478,0.10479 0.10478,0.24449 v 4.42401 q 0,0.1397 -0.10478,0.24448 -0.10478,0.10478 -0.24449,0.10478 z m 0,-0.52389 v 0.17463 h 2.56127 v -0.17463 z m 0,-0.34927 h 2.56127 v -3.37621 h -2.56127 z m 0,-3.72548 h 2.56127 v -0.17463 h -2.56127 z m 0,0 v -0.17463 z m 0,4.07475 v 0.17463 z"
         id="path351-56-6"
         style="fill:#4d4d4d;stroke-width:0.00582108" /><path
         d="m 72.331819,120.95332 q -0.13971,0 -0.24448,-0.10478 -0.10478,-0.10478 -0.10478,-0.24449 v -4.424 q 0,-0.13971 0.10478,-0.24449 0.10477,-0.10478 0.24448,-0.10478 h 2.56127 q 0.13971,0 0.24448,0.10478 0.10478,0.10478 0.10478,0.24449 v 4.424 q 0,0.13971 -0.10478,0.24449 -0.10477,0.10478 -0.24448,0.10478 z m 0,-0.5239 v 0.17463 h 2.56127 v -0.17463 z m 0,-0.34926 h 2.56127 v -3.37622 h -2.56127 z m 0,-3.72548 h 2.56127 v -0.17463 h -2.56127 z m 0,0 v -0.17463 z m 0,4.07474 v 0.17463 z"
         id="path351-2-1"
         style="fill:#4d4d4d;stroke-width:0.00582108" /><path
         style="fill:#4d4d4d;stroke:#000000;stroke-width:0.380615;stroke-dasharray:0.380615, 0.380615;stroke-dashoffset:0;stroke-opacity:1"
         d="m 75.473189,115.65643 7.224183,-6.68254"
         id="path1031-2" /><path
         style="fill:#4d4d4d;stroke:#000000;stroke-width:0.380615;stroke-dasharray:0.380615, 0.380615;stroke-dashoffset:0;stroke-opacity:1"
         d="m 83.912972,119.70263 3.10476,-9.62365"
         id="path1764-9" /><path
         style="fill:#4d4d4d;stroke:#000000;stroke-width:0.380615;stroke-dasharray:0.380615, 0.380615;stroke-dashoffset:0;stroke-opacity:1"
         d="m 91.323762,124.48338 -0.59977,-14.3958"
         id="path1766-3" /><path
         style="fill:#4d4d4d;stroke:#000000;stroke-width:0.380615;stroke-dasharray:0.380615, 0.380615;stroke-dashoffset:0;stroke-opacity:1"
         d="m 112.28125,117.01734 1.03358,-6.49097"
         id="path1770-9" /><path
         style="fill:#4d4d4d;stroke:#000000;stroke-width:0.380615;stroke-dasharray:0.380615, 0.380615;stroke-dashoffset:0;stroke-opacity:1"
         d="m 120.57592,118.64916 -5.68184,-8.06237"
         id="path1772-4" /><path
         style="fill:#4d4d4d;stroke:#000000;stroke-width:0.380615;stroke-dasharray:none;stroke-dashoffset:0;stroke-opacity:1"
         d="M 91.555282,94.234129 101.66826,81.130136"
         id="path1774-7" /><path
         style="fill:#4d4d4d;stroke:#eb0000;stroke-width:0.380615;stroke-dasharray:none;stroke-dashoffset:0;stroke-opacity:1"
         d="M 113.16237,93.928594 105.1411,81.35726"
         id="path1776-8" /><path
         style="fill:#4d4d4d;stroke:#000000;stroke-width:0.380615;stroke-dasharray:none;stroke-dashoffset:0;stroke-opacity:1"
         d="M 103.94761,72.426408 V 58.917378"
         id="path1778-4" /><path
         style="fill:#000000;stroke:#45983e;stroke-width:0.381;stroke-dasharray:0.381, 0.381;stroke-dashoffset:0;stroke-opacity:1"
         d="m 99.483172,117.36846 8.469028,-8.18442"
         id="path2104" /></g><g
       id="g2654"
       transform="translate(0,-1.584693)"><g
         id="g2745"><path
           d="m 156.93363,73.356736 h 12.22153 c 0.42187,0 0.76385,0.46361 0.76385,1.0355 v 4.14201 c 0,0.57189 -0.34198,1.0355 -0.76385,1.0355 h -12.22153 c -0.42187,0 -0.76384,-0.46361 -0.76384,-1.0355 v -4.14201 c 0,-0.57189 0.34197,-1.0355 0.76384,-1.0355 m 3.81923,4.14201 h 0.76384 v -2.071 h -0.76384 v 2.071 m -3.05538,-2.071 v 2.071 h 1.52769 v -2.071 h -1.52769"
           id="path514-5-6-37-5"
           sodipodi:nodetypes="csssssssccccccccccc"
           style="fill:#4d4d4d;stroke-width:0.889363" /><path
           d="m 170.39463,52.081436 h 12.22152 c 0.42187,0 0.76385,0.463611 0.76385,1.035496 v 4.142013 c 0,0.57189 -0.34198,1.035501 -0.76385,1.035501 h -12.22152 c -0.42188,0 -0.76385,-0.463611 -0.76385,-1.035501 v -4.142013 c 0,-0.571885 0.34197,-1.035496 0.76385,-1.035496 m 3.81922,4.142007 h 0.76385 V 54.15244 h -0.76385 v 2.071004 m -3.05538,-2.071004 v 2.071004 h 1.52769 V 54.15244 h -1.52769"
           id="path514-5-6-3-5-0"
           sodipodi:nodetypes="csssssssccccccccccc"
           style="fill:#4d4d4d;stroke-width:0.889363" /><path
           d="m 158.80344,102.5892 a 1.4305029,1.4305029 0 0 0 -1.43052,1.4305 c 0,0.35762 0.12877,0.67233 0.33618,0.92267 l -2.26735,6.22985 h 1.52349 l 1.8382,-5.05684 1.83819,5.05684 h 1.52349 l -2.26735,-6.22985 c 0.20743,-0.25034 0.33617,-0.56505 0.33617,-0.92267 a 1.4305029,1.4305029 0 0 0 -1.4305,-1.4305 m 0,-1.43052 a 2.8610059,2.8610059 0 0 1 2.861,2.86102 c 0,0.35762 -0.0715,0.71524 -0.20027,1.04426 l 0.62943,1.71661 c 0.62226,-0.75102 1.00135,-1.70945 1.00135,-2.76087 a 4.291509,4.291509 0 0 0 -4.29151,-4.291518 4.291509,4.291509 0 0 0 -4.29151,4.291518 c 0,1.05142 0.37909,2.00985 1.00135,2.76087 l 0.62942,-1.71661 c -0.12873,-0.32902 -0.20026,-0.68664 -0.20026,-1.04426 a 2.8610059,2.8610059 0 0 1 2.861,-2.86102 m 0,-2.860997 a 5.7220121,5.7220121 0 0 1 5.72201,5.722017 c 0,1.68798 -0.71525,3.21862 -1.88827,4.24859 l 0.51499,1.4305 c 1.7023,-1.30891 2.80377,-3.36883 2.80377,-5.67909 a 7.1525151,7.1525151 0 0 0 -7.1525,-7.152527 7.1525151,7.1525151 0 0 0 -7.15251,7.152527 c 0,2.31026 1.10148,4.37018 2.80378,5.67909 l 0.51499,-1.4305 c -1.17303,-1.02997 -1.88828,-2.56061 -1.88828,-4.24859 a 5.7220121,5.7220121 0 0 1 5.72202,-5.722017 z"
           id="path257-3-9-3"
           style="fill:#4d4d4d;stroke-width:0.715253" /><path
           d="m 187.05434,102.31686 a 1.4305029,1.4305029 0 0 0 -1.43052,1.43051 c 0,0.35762 0.12877,0.67232 0.33618,0.92267 l -2.26735,6.22984 h 1.52349 l 1.8382,-5.05683 1.83819,5.05683 h 1.52349 l -2.26735,-6.22984 c 0.20743,-0.25035 0.33617,-0.56505 0.33617,-0.92267 a 1.4305029,1.4305029 0 0 0 -1.4305,-1.43051 m 0,-1.43051 a 2.8610059,2.8610059 0 0 1 2.86099,2.86102 c 0,0.35762 -0.0715,0.71524 -0.20027,1.04426 l 0.62943,1.71661 c 0.62226,-0.75102 1.00136,-1.70945 1.00136,-2.76087 a 4.291509,4.291509 0 0 0 -4.29151,-4.291515 4.291509,4.291509 0 0 0 -4.29151,4.291515 c 0,1.05142 0.37909,2.00985 1.00135,2.76087 l 0.62942,-1.71661 c -0.12874,-0.32902 -0.20026,-0.68664 -0.20026,-1.04426 a 2.8610059,2.8610059 0 0 1 2.861,-2.86102 m 0,-2.860995 a 5.7220121,5.7220121 0 0 1 5.72201,5.722015 c 0,1.68798 -0.71526,3.21862 -1.88827,4.24858 l 0.51499,1.4305 c 1.7023,-1.30891 2.80377,-3.36883 2.80377,-5.67908 a 7.1525151,7.1525151 0 0 0 -7.1525,-7.152524 7.1525151,7.1525151 0 0 0 -7.15251,7.152524 c 0,2.31025 1.10148,4.37017 2.80378,5.67908 l 0.51499,-1.4305 c -1.17303,-1.02996 -1.88828,-2.5606 -1.88828,-4.24858 a 5.7220121,5.7220121 0 0 1 5.72202,-5.722015 z"
           id="path257-3-6-2-6"
           style="fill:#4d4d4d;stroke-width:0.715253" /><path
           d="m 183.83179,124.1698 q -0.13971,0 -0.24449,-0.10478 -0.10478,-0.10478 -0.10478,-0.24449 v -4.424 q 0,-0.13971 0.10478,-0.24449 0.10478,-0.10477 0.24449,-0.10477 h 2.56127 q 0.1397,0 0.24448,0.10477 0.10478,0.10478 0.10478,0.24449 v 4.424 q 0,0.13971 -0.10478,0.24449 -0.10478,0.10478 -0.24448,0.10478 z m 0,-0.52389 v 0.17462 h 2.56127 v -0.17462 z m 0,-0.34927 h 2.56127 v -3.37622 h -2.56127 z m 0,-3.72548 h 2.56127 v -0.17463 h -2.56127 z m 0,0 v -0.17463 z m 0,4.07475 v 0.17462 z"
           id="path351-28-1"
           style="fill:#4d4d4d;stroke-width:0.00582108" /><path
           d="m 192.17104,125.8516 q -0.13971,0 -0.24449,-0.10477 -0.10478,-0.10479 -0.10478,-0.24449 v -4.42401 q 0,-0.1397 0.10478,-0.24448 0.10478,-0.10478 0.24449,-0.10478 h 2.56127 q 0.1397,0 0.24448,0.10478 0.10478,0.10478 0.10478,0.24448 v 4.42401 q 0,0.1397 -0.10478,0.24449 -0.10478,0.10477 -0.24448,0.10477 z m 0,-0.52389 v 0.17463 h 2.56127 v -0.17463 z m 0,-0.34926 h 2.56127 v -3.37622 h -2.56127 z m 0,-3.72549 h 2.56127 v -0.17463 h -2.56127 z m 0,0 v -0.17463 z m 0,4.07475 v 0.17463 z"
           id="path351-7-9-0"
           style="fill:#4d4d4d;stroke-width:0.00582108" /><path
           d="m 169.54891,123.8886 q -0.13971,0 -0.24448,-0.10478 -0.10478,-0.10478 -0.10478,-0.24449 v -4.424 q 0,-0.13971 0.10478,-0.24449 0.10477,-0.10478 0.24448,-0.10478 h 2.56127 q 0.13971,0 0.24448,0.10478 0.10478,0.10478 0.10478,0.24449 v 4.424 q 0,0.13971 -0.10478,0.24449 -0.10477,0.10478 -0.24448,0.10478 z m 0,-0.5239 v 0.17463 h 2.56127 v -0.17463 z m 0,-0.34926 h 2.56127 v -3.37622 h -2.56127 z m 0,-3.72548 h 2.56127 v -0.17463 h -2.56127 z m 0,0 v -0.17463 z m 0,4.07474 v 0.17463 z"
           id="path351-5-7-6"
           style="fill:#4d4d4d;stroke-width:0.00582108" /><path
           d="m 160.18719,131.61277 q -0.13971,0 -0.24449,-0.10478 -0.10478,-0.10478 -0.10478,-0.24448 v -4.42401 q 0,-0.1397 0.10478,-0.24449 0.10478,-0.10477 0.24449,-0.10477 h 2.56127 q 0.1397,0 0.24448,0.10477 0.10478,0.10479 0.10478,0.24449 v 4.42401 q 0,0.1397 -0.10478,0.24448 -0.10478,0.10478 -0.24448,0.10478 z m 0,-0.52389 v 0.17463 h 2.56127 v -0.17463 z m 0,-0.34927 h 2.56127 v -3.37622 h -2.56127 z m 0,-3.72548 h 2.56127 v -0.17463 h -2.56127 z m 0,0 v -0.17463 z m 0,4.07475 v 0.17463 z"
           id="path351-3-3-3"
           style="fill:#4d4d4d;stroke-width:0.00582108" /><path
           d="m 152.27893,126.74798 q -0.1397,0 -0.24448,-0.10478 -0.10478,-0.10478 -0.10478,-0.24448 v -4.42401 q 0,-0.1397 0.10478,-0.24449 0.10478,-0.10477 0.24448,-0.10477 h 2.56127 q 0.13971,0 0.24449,0.10477 0.10478,0.10479 0.10478,0.24449 v 4.42401 q 0,0.1397 -0.10478,0.24448 -0.10478,0.10478 -0.24449,0.10478 z m 0,-0.52389 v 0.17463 h 2.56127 v -0.17463 z m 0,-0.34927 h 2.56127 v -3.37621 h -2.56127 z m 0,-3.72548 h 2.56127 v -0.17463 h -2.56127 z m 0,0 v -0.17463 z m 0,4.07475 v 0.17463 z"
           id="path351-56-6-2"
           style="fill:#4d4d4d;stroke-width:0.00582108" /><path
           d="m 142.70402,122.5013 q -0.13971,0 -0.24448,-0.10478 -0.10478,-0.10478 -0.10478,-0.24449 v -4.424 q 0,-0.13971 0.10478,-0.24449 0.10477,-0.10478 0.24448,-0.10478 h 2.56127 q 0.13971,0 0.24448,0.10478 0.10478,0.10478 0.10478,0.24449 v 4.424 q 0,0.13971 -0.10478,0.24449 -0.10477,0.10478 -0.24448,0.10478 z m 0,-0.5239 v 0.17463 h 2.56127 v -0.17463 z m 0,-0.34926 h 2.56127 v -3.37622 h -2.56127 z m 0,-3.72548 h 2.56127 v -0.17463 h -2.56127 z m 0,0 v -0.17463 z m 0,4.07474 v 0.17463 z"
           id="path351-2-1-0"
           style="fill:#4d4d4d;stroke-width:0.00582108" /><path
           style="fill:#4d4d4d;stroke:#000000;stroke-width:0.380615;stroke-dasharray:0.380615, 0.380615;stroke-dashoffset:0;stroke-opacity:1"
           d="m 145.84539,117.20441 7.22418,-6.68254"
           id="path1031-2-6" /><path
           style="fill:#4d4d4d;stroke:#000000;stroke-width:0.380615;stroke-dasharray:0.380615, 0.380615;stroke-dashoffset:0;stroke-opacity:1"
           d="m 154.28517,121.25061 3.10476,-9.62365"
           id="path1764-9-1" /><path
           style="fill:#4d4d4d;stroke:#000000;stroke-width:0.380615;stroke-dasharray:0.380615, 0.380615;stroke-dashoffset:0;stroke-opacity:1"
           d="m 161.69596,126.03136 -0.59977,-14.3958"
           id="path1766-3-5" /><path
           style="fill:#4d4d4d;stroke:#000000;stroke-width:0.380615;stroke-dasharray:0.380615, 0.380615;stroke-dashoffset:0;stroke-opacity:1"
           d="m 185.65461,118.24378 1.03358,-6.49097"
           id="path1770-9-5" /><path
           style="fill:#4d4d4d;stroke:#000000;stroke-width:0.380615;stroke-dasharray:0.380615, 0.380615;stroke-dashoffset:0;stroke-opacity:1"
           d="m 193.94928,119.8756 -5.68184,-8.06237"
           id="path1772-4-4" /><path
           style="fill:#4d4d4d;stroke:#000000;stroke-width:0.380615;stroke-dasharray:none;stroke-dashoffset:0;stroke-opacity:1"
           d="m 159.47311,96.364215 0.002,-15.593383"
           id="path1774-7-7"
           sodipodi:nodetypes="cc" /><path
           style="fill:#4d4d4d;stroke:#46983e;stroke-width:0.380615;stroke-dasharray:none;stroke-dashoffset:0;stroke-opacity:1"
           d="m 187.96353,94.884336 -0.0689,-13.86053"
           id="path1776-8-6"
           sodipodi:nodetypes="cc" /><path
           style="fill:#4d4d4d;stroke:#000000;stroke-width:0.380615;stroke-dasharray:none;stroke-dashoffset:0;stroke-opacity:1"
           d="M 162.94435,72.536156 174.54131,58.672458"
           id="path1778-4-5"
           sodipodi:nodetypes="cc" /><path
           style="fill:#000000;stroke:#45983e;stroke-width:0.381;stroke-dasharray:0.381, 0.381;stroke-dashoffset:0;stroke-opacity:1"
           d="m 172.85653,118.5949 8.46903,-8.18442"
           id="path2104-6" /><path
           d="m 182.32045,73.200354 h 12.22153 c 0.42187,0 0.76385,0.46361 0.76385,1.0355 v 4.14201 c 0,0.57189 -0.34198,1.0355 -0.76385,1.0355 h -12.22153 c -0.42187,0 -0.76384,-0.46361 -0.76384,-1.0355 v -4.14201 c 0,-0.57189 0.34197,-1.0355 0.76384,-1.0355 m 3.81923,4.14201 h 0.76384 v -2.071 h -0.76384 v 2.071 m -3.05538,-2.071 v 2.071 h 1.52769 v -2.071 h -1.52769"
           id="path514-5-6-37-5-9"
           sodipodi:nodetypes="csssssssccccccccccc"
           style="fill:#45983e;stroke-width:0.889363;fill-opacity:1" /><path
           style="fill:#4d4d4d;stroke:#46983e;stroke-width:0.380615;stroke-dasharray:none;stroke-dashoffset:0;stroke-opacity:1"
           d="M 189.0096,71.902784 179.10572,59.242243"
           id="path1778-4-5-3"
           sodipodi:nodetypes="cc" /></g><path
         style="fill:#45983e;fill-opacity:1;stroke:#4d51ff;stroke-width:2.214;stroke-dasharray:none;stroke-dashoffset:0;stroke-opacity:1;marker-end:url(#TriangleStart)"
         d="m 61.098921,91.093688 h 11.09204"
         id="path2890" /><path
         style="fill:#45983e;fill-opacity:1;stroke:#4d51ff;stroke-width:2.214;stroke-dasharray:none;stroke-dashoffset:0;stroke-opacity:1;marker-end:url(#TriangleStart-4)"
         d="M 127.16886,91.093688 H 138.2609"
         id="path2890-2" /></g><path
       style="fill:#45983e;fill-opacity:1;stroke:#787878;stroke-width:0.714;stroke-dasharray:0.714, 0.714;stroke-dashoffset:0;stroke-opacity:1"
       d="M 68.076375,48.7207 V 80.311291"
       id="path4191" /><path
       style="fill:#45983e;fill-opacity:1;stroke:#787878;stroke-width:0.714;stroke-dasharray:0.714, 0.714;stroke-dashoffset:0;stroke-opacity:1"
       d="m 68.076375,97.84609 v 36.74764"
       id="path4193" /><path
       style="fill:#45983e;fill-opacity:1;stroke:#787878;stroke-width:0.714;stroke-dasharray:0.714, 0.714;stroke-dashoffset:0;stroke-opacity:1"
       d="M 134.20528,48.7207 V 80.311291"
       id="path4195" /><path
       style="fill:#45983e;fill-opacity:1;stroke:#787878;stroke-width:0.714;stroke-dasharray:0.714, 0.714;stroke-dashoffset:0;stroke-opacity:1"
       d="m 134.20528,97.77542 v 36.81831"
       id="path4197" /></g></svg>
