<?xml version="1.0" encoding="UTF-8" standalone="no"?>
<!-- Created with Inkscape (http://www.inkscape.org/) -->

<svg
   width="1080"
   height="1350"
   viewBox="0 0 1080 1350"
   version="1.1"
   id="svg5"
   xml:space="preserve"
   inkscape:version="1.2.2 (b0a8486541, 2022-12-01)"
   sodipodi:docname="lte-to-5g.svg"
   inkscape:export-filename="lte-to-5g.png"
   inkscape:export-xdpi="96"
   inkscape:export-ydpi="96"
   xmlns:inkscape="http://www.inkscape.org/namespaces/inkscape"
   xmlns:sodipodi="http://sodipodi.sourceforge.net/DTD/sodipodi-0.dtd"
   xmlns="http://www.w3.org/2000/svg"
   xmlns:svg="http://www.w3.org/2000/svg"><sodipodi:namedview
     id="namedview7"
     pagecolor="#ffffff"
     bordercolor="#cccccc"
     borderopacity="1"
     inkscape:showpageshadow="0"
     inkscape:pageopacity="1"
     inkscape:pagecheckerboard="0"
     inkscape:deskcolor="#d1d1d1"
     inkscape:document-units="px"
     showgrid="false"
     showguides="true"
     inkscape:zoom="0.5"
     inkscape:cx="31"
     inkscape:cy="482"
     inkscape:window-width="2560"
     inkscape:window-height="1011"
     inkscape:window-x="0"
     inkscape:window-y="0"
     inkscape:window-maximized="1"
     inkscape:current-layer="layer1" /><defs
     id="defs2" /><g
     inkscape:label="Layer 1"
     inkscape:groupmode="layer"
     id="layer1"><g
       id="g2254"><path
         d="m 136.49342,100.39051 a 46.739157,46.739157 0 0 0 -46.739154,46.73916 c 0,23.54485 17.527174,43.35057 40.896754,46.33018 v 6.25137 h -5.84239 a 5.8423946,5.8423946 0 0 0 -5.8424,5.8424 H 78.069476 v 11.68479 h 40.896754 a 5.8423946,5.8423946 0 0 0 5.8424,5.84239 h 23.36958 a 5.8423946,5.8423946 0 0 0 5.84239,-5.84239 h 40.89676 V 205.55362 H 154.0206 a 5.8423946,5.8423946 0 0 0 -5.84239,-5.8424 h -5.8424 v -6.25137 c 23.36958,-2.92119 40.89676,-22.78533 40.89676,-46.33018 a 46.739157,46.739157 0 0 0 -46.73915,-46.73916 m 0,11.68478 c 0,0 4.32337,7.47828 7.36141,17.5272 H 129.132 c 3.03804,-10.04892 7.36142,-17.5272 7.36142,-17.5272 m -13.02855,2.51224 c -1.57744,2.92119 -3.97282,8.23777 -6.01766,15.01496 h -11.27582 c 4.03125,-6.77719 9.87365,-12.09377 17.29348,-15.01496 m 26.05708,0.0585 c 7.41984,2.9212 13.26224,8.17935 17.29349,14.95653 h -11.27582 c -2.04484,-6.77718 -4.44022,-12.09377 -6.01767,-14.95653 m -47.55709,26.64132 h 13.02854 c -0.2337,1.92799 -0.40897,3.85598 -0.40897,5.84239 0,1.98641 0.17527,3.9144 0.40897,5.84239 h -13.02854 c -0.35054,-1.92799 -0.52581,-3.85598 -0.52581,-5.84239 0,-1.98641 0.17527,-3.9144 0.52581,-5.84239 m 24.71333,0 h 19.63045 c 0.23369,1.92799 0.40896,3.85598 0.40896,5.84239 0,1.98641 -0.17527,3.9144 -0.40896,5.84239 h -19.63045 c -0.2337,-1.92799 -0.40897,-3.85598 -0.40897,-5.84239 0,-1.98641 0.17527,-3.9144 0.40897,-5.84239 m 31.31524,0 h 13.02854 c 0.35054,1.92799 0.52581,3.85598 0.52581,5.84239 0,1.98641 -0.17527,3.9144 -0.52581,5.84239 h -13.02854 c 0.23369,-1.92799 0.40896,-3.85598 0.40896,-5.84239 0,-1.98641 -0.17527,-3.9144 -0.40896,-5.84239 m -51.82204,23.36957 h 11.27582 c 2.04484,6.77718 4.44022,12.09376 6.01766,14.95653 -7.41983,-2.92119 -13.26223,-8.17935 -17.29348,-14.95653 m 22.96061,0 h 14.72283 c -3.03804,10.04892 -7.36141,17.52719 -7.36141,17.52719 0,0 -4.32338,-7.47827 -7.36142,-17.52719 m 26.40762,0 h 11.27582 c -4.03125,6.77718 -9.87365,12.09376 -17.29349,15.01496 1.57745,-2.9212 3.97283,-8.23778 6.01767,-15.01496 z"
         id="path33"
         style="fill:#4d4d4d;stroke-width:5.84241" /><path
         d="m 81.38788,649.02342 h 101.45046 a 6.3406525,5.6013589 0 0 1 6.34064,5.60137 v 22.40543 a 6.3406525,5.6013589 0 0 1 -6.34064,5.60136 H 81.38788 a 6.3406525,5.6013589 0 0 1 -6.34067,-5.60136 v -22.40543 a 6.3406525,5.6013589 0 0 1 6.34067,-5.60137 m 0,44.81088 h 101.45046 a 6.3406525,5.6013589 0 0 1 6.34064,5.60135 v 22.40545 a 6.3406525,5.6013589 0 0 1 -6.34064,5.60137 H 81.38788 a 6.3406525,5.6013589 0 0 1 -6.34067,-5.60137 v -22.40545 a 6.3406525,5.6013589 0 0 1 6.34067,-5.60135 m 0,44.81088 h 101.45046 a 6.3406525,5.6013589 0 0 1 6.34064,5.60131 v 22.40548 a 6.3406525,5.6013589 0 0 1 -6.34064,5.60131 H 81.38788 a 6.3406525,5.6013589 0 0 1 -6.34067,-5.60131 v -22.40548 a 6.3406525,5.6013589 0 0 1 6.34067,-5.60131 m 31.70327,-67.21633 h 6.34064 v -11.20271 h -6.34064 v 11.20271 m 0,44.81089 h 6.34064 v -11.20271 h -6.34064 v 11.20271 m 0,44.81091 h 6.34064 v -11.20273 h -6.34064 v 11.20273 M 87.72851,660.22614 v 11.20271 h 12.68133 V 660.22614 H 87.72851 m 0,44.81089 v 11.20271 h 12.68133 V 705.03703 H 87.72851 m 0,44.81089 v 11.20273 h 12.68133 v -11.20273 z"
         id="path224"
         style="fill:#4d4d4d;stroke-width:5.95954" /><path
         d="m 136.48719,899.47093 a 12.287297,12.287297 0 0 0 -12.2874,12.28734 c 0,3.07178 1.106,5.77495 2.8876,7.9253 l -19.4754,53.51117 h 13.086 l 15.7892,-43.43562 15.7891,43.43562 h 13.086 l -19.4754,-53.51117 c 1.7817,-2.15035 2.8876,-4.85352 2.8876,-7.9253 a 12.287297,12.287297 0 0 0 -12.2873,-12.28734 m 0,-12.28733 a 24.574595,24.574595 0 0 1 24.5745,24.57467 c 0,3.07178 -0.6143,6.14357 -1.7202,8.9697 l 5.4065,14.74477 c 5.3449,-6.45085 8.6011,-14.68333 8.6011,-23.71447 a 36.861893,36.861893 0 0 0 -36.8619,-36.86191 36.861893,36.861893 0 0 0 -36.861906,36.86191 c 0,9.03114 3.256206,17.26362 8.601106,23.71447 l 5.4064,-14.74477 c -1.1058,-2.82613 -1.7202,-5.89792 -1.7202,-8.9697 a 24.574595,24.574595 0 0 1 24.5746,-24.57467 m 0,-24.57457 a 49.149191,49.149191 0 0 1 49.1492,49.14924 c 0,14.49892 -6.1437,27.64635 -16.2193,36.49319 l 4.4235,12.28733 c 14.6219,-11.24292 24.083,-28.9366 24.083,-48.78052 a 61.436488,61.436488 0 0 0 -61.4364,-61.43657 61.436488,61.436488 0 0 0 -61.436466,61.43657 c 0,19.84392 9.46116,37.5376 24.08306,48.78052 l 4.423506,-12.28733 C 93.481584,939.40462 87.337884,926.25719 87.337884,911.75827 a 49.149191,49.149191 0 0 1 49.149306,-49.14924 z"
         id="path257"
         style="fill:#4d4d4d;stroke-width:6.14365" /><path
         d="m 590.77277,100.3905 a 46.739157,46.739157 0 0 0 -46.73916,46.73917 c 0,23.54485 17.52718,43.35057 40.89676,46.33018 v 6.25137 h -5.84239 a 5.8423946,5.8423946 0 0 0 -5.8424,5.8424 h -40.89676 v 11.68479 h 40.89676 a 5.8423946,5.8423946 0 0 0 5.8424,5.84239 h 23.36958 a 5.8423946,5.8423946 0 0 0 5.84239,-5.84239 h 40.89676 v -11.68479 h -40.89676 a 5.8423946,5.8423946 0 0 0 -5.84239,-5.8424 h -5.8424 v -6.25137 c 23.36958,-2.92119 40.89676,-22.78533 40.89676,-46.33018 A 46.739157,46.739157 0 0 0 590.77277,100.3905 m 0,11.68479 c 0,0 4.32337,7.47827 7.36141,17.52719 h -14.72283 c 3.03804,-10.04892 7.36142,-17.52719 7.36142,-17.52719 m -13.02855,2.51223 c -1.57744,2.92119 -3.97282,8.23777 -6.01766,15.01496 h -11.27582 c 4.03125,-6.77719 9.87365,-12.09377 17.29348,-15.01496 m 26.05708,0.0585 c 7.41984,2.9212 13.26224,8.17935 17.29349,14.95653 h -11.27582 c -2.04484,-6.77718 -4.44022,-12.09377 -6.01767,-14.95653 m -47.55709,26.64133 h 13.02854 c -0.2337,1.92799 -0.40897,3.85598 -0.40897,5.84239 0,1.98641 0.17527,3.9144 0.40897,5.84239 h -13.02854 c -0.35054,-1.92799 -0.52581,-3.85598 -0.52581,-5.84239 0,-1.98641 0.17527,-3.9144 0.52581,-5.84239 m 24.71333,0 h 19.63045 c 0.23369,1.92799 0.40896,3.85598 0.40896,5.84239 0,1.98641 -0.17527,3.9144 -0.40896,5.84239 h -19.63045 c -0.2337,-1.92799 -0.40897,-3.85598 -0.40897,-5.84239 0,-1.98641 0.17527,-3.9144 0.40897,-5.84239 m 31.31524,0 h 13.02854 c 0.35054,1.92799 0.52581,3.85598 0.52581,5.84239 0,1.98641 -0.17527,3.9144 -0.52581,5.84239 h -13.02854 c 0.23369,-1.92799 0.40896,-3.85598 0.40896,-5.84239 0,-1.98641 -0.17527,-3.9144 -0.40896,-5.84239 m -51.82204,23.36957 h 11.27582 c 2.04484,6.77718 4.44022,12.09376 6.01766,14.95653 -7.41983,-2.92119 -13.26223,-8.17935 -17.29348,-14.95653 m 22.96061,0 h 14.72283 c -3.03804,10.04892 -7.36141,17.52719 -7.36141,17.52719 0,0 -4.32338,-7.47827 -7.36142,-17.52719 m 26.40762,0 h 11.27582 c -4.03125,6.77718 -9.87365,12.09376 -17.29349,15.01496 1.57745,-2.9212 3.97283,-8.23778 6.01767,-15.01496 z"
         id="path33-5"
         style="fill:#4d4d4d;stroke-width:5.84241" /><path
         d="m 590.77028,899.72025 a 12.287297,12.287297 0 0 0 -12.2874,12.28734 c 0,3.07178 1.106,5.77495 2.8876,7.9253 l -19.4754,53.5112 h 13.086 l 15.7892,-43.43565 15.7891,43.43565 h 13.086 l -19.4754,-53.5112 c 1.7817,-2.15035 2.8876,-4.85352 2.8876,-7.9253 a 12.287297,12.287297 0 0 0 -12.2873,-12.28734 m 0,-12.28733 a 24.574595,24.574595 0 0 1 24.5745,24.57467 c 0,3.07178 -0.6143,6.14357 -1.7202,8.9697 l 5.4065,14.74477 c 5.3449,-6.45085 8.6011,-14.68333 8.6011,-23.71447 a 36.861893,36.861893 0 0 0 -36.8619,-36.86191 36.861893,36.861893 0 0 0 -36.86191,36.86191 c 0,9.03114 3.25621,17.26362 8.60111,23.71447 l 5.4064,-14.74477 c -1.1058,-2.82613 -1.7202,-5.89792 -1.7202,-8.9697 a 24.574595,24.574595 0 0 1 24.5746,-24.57467 m 0,-24.57457 a 49.149191,49.149191 0 0 1 49.1492,49.14924 c 0,14.49892 -6.1437,27.64635 -16.2193,36.4932 l 4.4235,12.2873 c 14.6219,-11.2429 24.083,-28.93658 24.083,-48.7805 a 61.436488,61.436488 0 0 0 -61.4364,-61.43657 61.436488,61.436488 0 0 0 -61.43647,61.43657 c 0,19.84392 9.46116,37.5376 24.08306,48.7805 l 4.42351,-12.2873 c -10.07571,-8.84685 -16.21941,-21.99428 -16.21941,-36.4932 a 49.149191,49.149191 0 0 1 49.14931,-49.14924 z"
         id="path257-3"
         style="fill:#4d4d4d;stroke-width:6.14365" /><text
         xml:space="preserve"
         style="font-style:normal;font-weight:normal;font-size:40px;line-height:1.25;font-family:sans-serif;fill:#4d4d4d;fill-opacity:1;stroke:none"
         x="691.38611"
         y="171.11945"
         id="text400"><tspan
           sodipodi:role="line"
           id="tspan398"
           x="691.38611"
           y="171.11945">Core Network</tspan><tspan
           sodipodi:role="line"
           x="691.38611"
           y="221.11945"
           id="tspan402" /></text><text
         xml:space="preserve"
         style="font-style:normal;font-weight:normal;font-size:40px;line-height:1.25;font-family:sans-serif;fill:#4d4d4d;fill-opacity:1;stroke:none"
         x="689.96014"
         y="935.11328"
         id="text458"><tspan
           sodipodi:role="line"
           x="689.96014"
           y="935.11328"
           id="tspan460">Radio Antenna</tspan></text><text
         xml:space="preserve"
         style="font-style:normal;font-weight:normal;font-size:40px;line-height:1.25;font-family:sans-serif;fill:#4d4d4d;fill-opacity:1;stroke:none"
         x="134.72974"
         y="631.82843"
         id="text478"><tspan
           sodipodi:role="line"
           id="tspan476"
           x="134.72974"
           y="631.82843">BBU</tspan></text><path
         d="m 534.3393,437.4778 h 104.22319 c 3.59767,0 6.51401,3.95363 6.51401,8.83059 v 35.32239 c 0,4.87698 -2.91634,8.83061 -6.51401,8.83061 H 534.3393 c -3.59765,0 -6.51395,-3.95363 -6.51395,-8.83061 v -35.32239 c 0,-4.87696 2.9163,-8.83059 6.51395,-8.83059 m 32.56975,35.32239 H 573.423 V 455.139 h -6.51395 v 17.66119 M 540.85324,455.139 v 17.66119 h 13.02792 V 455.139 h -13.02792"
         id="path514"
         sodipodi:nodetypes="csssssssccccccccccc"
         style="fill:#4d4d4d;stroke-width:7.58433" /><path
         d="m 534.42778,575.01602 h 104.37247 c 3.60282,0 6.52334,3.95929 6.52334,8.84323 v 35.37298 c 0,4.88397 -2.92052,8.84326 -6.52334,8.84326 H 534.42778 c -3.60281,0 -6.52328,-3.95929 -6.52328,-8.84326 v -35.37298 c 0,-4.88394 2.92047,-8.84323 6.52328,-8.84323 m 32.6164,35.37298 h 6.52328 v -17.68649 h -6.52328 V 610.389 M 540.95105,592.70251 V 610.389 h 13.04658 v -17.68649 h -13.04658"
         id="path514-5"
         sodipodi:nodetypes="csssssssccccccccccc"
         style="fill:#4d4d4d;stroke-width:7.59519" /><path
         d="m 533.67116,712.15733 h 104.97672 c 3.62368,0 6.56111,3.98221 6.56111,8.89443 v 35.57777 c 0,4.91224 -2.93743,8.89445 -6.56111,8.89445 H 533.67116 c -3.62366,0 -6.56104,-3.98221 -6.56104,-8.89445 v -35.57777 c 0,-4.91222 2.93738,-8.89443 6.56104,-8.89443 m 32.80523,35.57777 h 6.56104 v -17.78889 h -6.56104 V 747.7351 M 540.2322,729.94621 v 17.78889 h 13.12211 V 729.94621 H 540.2322"
         id="path514-5-6"
         sodipodi:nodetypes="csssssssccccccccccc"
         style="fill:#4d4d4d;stroke-width:7.63917" /><path
         d="m 631.65885,296.28299 h 103.5336 c 3.57386,0 6.47091,3.92747 6.47091,8.77216 v 35.08868 c 0,4.84471 -2.89705,8.77218 -6.47091,8.77218 h -103.5336 c -3.57385,0 -6.47085,-3.92747 -6.47085,-8.77218 v -35.08868 c 0,-4.84469 2.897,-8.77216 6.47085,-8.77216 m 32.35425,35.08868 h 6.47085 v -17.54434 h -6.47085 v 17.54434 m -25.88341,-17.54434 v 17.54434 h 12.94172 v -17.54434 h -12.94172"
         id="path514-5-2"
         sodipodi:nodetypes="csssssssccccccccccc"
         style="fill:#4d4d4d;stroke-width:7.53415" /><path
         d="m 437.48011,296.28399 h 103.5336 c 3.57386,0 6.47091,3.92747 6.47091,8.77216 v 35.08868 c 0,4.84471 -2.89705,8.77218 -6.47091,8.77218 h -103.5336 c -3.57385,0 -6.47085,-3.92747 -6.47085,-8.77218 v -35.08868 c 0,-4.84469 2.897,-8.77216 6.47085,-8.77216 m 32.35425,35.08868 h 6.47085 v -17.54434 h -6.47085 v 17.54434 m -25.88341,-17.54434 v 17.54434 h 12.94172 v -17.54434 h -12.94172"
         id="path514-5-9"
         sodipodi:nodetypes="csssssssccccccccccc"
         style="fill:#4d4d4d;stroke-width:7.53415" /><text
         xml:space="preserve"
         style="font-style:normal;font-weight:normal;font-size:29.0955px;line-height:1.25;font-family:sans-serif;fill:#4d4d4d;fill-opacity:1;stroke:none;stroke-width:0.727387"
         x="321.08899"
         y="372.4231"
         id="text656"><tspan
           sodipodi:role="line"
           x="321.08899"
           y="372.4231"
           id="tspan690"
           style="stroke-width:0.727387">Near-RT RIC</tspan></text><text
         xml:space="preserve"
         style="font-style:normal;font-weight:normal;font-size:32.3357px;line-height:1.25;font-family:sans-serif;fill:#4d4d4d;fill-opacity:1;stroke:none;stroke-width:0.808393"
         x="683.21191"
         y="375.0596"
         id="text668"><tspan
           sodipodi:role="line"
           id="tspan666"
           x="683.21191"
           y="375.0596"
           style="stroke-width:0.808393">Non-RT RIC/SMO</tspan><tspan
           sodipodi:role="line"
           x="683.21191"
           y="415.47922"
           id="tspan672"
           style="stroke-width:0.808393" /><tspan
           sodipodi:role="line"
           x="683.21191"
           y="455.89886"
           id="tspan670"
           style="stroke-width:0.808393" /></text><text
         xml:space="preserve"
         style="font-style:normal;font-weight:normal;font-size:36.6682px;line-height:1.25;font-family:sans-serif;fill:#4d4d4d;fill-opacity:1;stroke:none;stroke-width:0.916704"
         x="495.24692"
         y="527.03278"
         id="text676"><tspan
           sodipodi:role="line"
           x="495.24692"
           y="527.03278"
           id="tspan678"
           style="stroke-width:0.916704">O-CU</tspan></text><text
         xml:space="preserve"
         style="font-style:normal;font-weight:normal;font-size:36.6682px;line-height:1.25;font-family:sans-serif;fill:#4d4d4d;fill-opacity:1;stroke:none;stroke-width:0.916704"
         x="491.98639"
         y="659.87842"
         id="text684"><tspan
           sodipodi:role="line"
           id="tspan682"
           x="491.98639"
           y="659.87842"
           style="stroke-width:0.916704">O-DU</tspan></text><text
         xml:space="preserve"
         style="font-style:normal;font-weight:normal;font-size:36.6682px;line-height:1.25;font-family:sans-serif;fill:#4d4d4d;fill-opacity:1;stroke:none;stroke-width:0.916704"
         x="494.63013"
         y="797.18262"
         id="text688"><tspan
           sodipodi:role="line"
           id="tspan686"
           x="494.63013"
           y="797.18262"
           style="stroke-width:0.916704">O-RU</tspan></text><rect
         style="fill:none;stroke:#000000;stroke-width:3.77953;stroke-linejoin:round;stroke-dasharray:15.1181, 15.1181;stroke-dashoffset:0"
         id="rect811"
         width="696.36719"
         height="568.46094"
         x="292.32812"
         y="251.03906"
         ry="0.067035504" /><rect
         style="fill:none;stroke:#000000;stroke-width:3.78;stroke-linejoin:round;stroke-dasharray:15.12, 15.12;stroke-dashoffset:0"
         id="rect865"
         width="164.21094"
         height="198.72656"
         x="54.226562"
         y="585.82031"
         ry="0.067035504" /><path
         style="fill:none;stroke:#000000;stroke-width:1px;stroke-linecap:butt;stroke-linejoin:miter;stroke-dasharray:4, 4;stroke-dashoffset:0;stroke-opacity:1"
         d="M 53.18164,586.18359 292.72851,249.53906"
         id="path932" /><path
         style="fill:none;stroke:#000000;stroke-width:1px;stroke-linecap:butt;stroke-linejoin:miter;stroke-dasharray:4, 4;stroke-dashoffset:0;stroke-opacity:1"
         d="M 54.792969,785.91992 292.14648,818.96679"
         id="path934" /><path
         style="fill:none;stroke:#000000;stroke-width:1px;stroke-linecap:butt;stroke-linejoin:miter;stroke-dasharray:4, 4;stroke-dashoffset:0;stroke-opacity:1"
         d="m 219.0208,584.74611 75.00304,-35.847"
         id="path936" /><path
         style="fill:none;stroke:#000000;stroke-width:1px;stroke-linecap:butt;stroke-linejoin:miter;stroke-dasharray:4, 4;stroke-dashoffset:0;stroke-opacity:1"
         d="m 218.42578,786.25 72.77344,2.8789"
         id="path938" /><path
         style="fill:#333333;stroke:#4c4c4c;stroke-width:3;stroke-linecap:butt;stroke-linejoin:miter;stroke-dasharray:none;stroke-opacity:1"
         d="M 136.49342,223.0808 V 649.02396"
         id="path1017" /><path
         style="fill:none;stroke:#4d4d4d;stroke-width:3;stroke-linecap:butt;stroke-linejoin:miter;stroke-dasharray:none;stroke-opacity:1"
         d="M 136.49342,772.25328 V 850.3217"
         id="path1706" /><path
         style="fill:#4d4d4d;stroke:#000000;stroke-width:3;stroke-linecap:butt;stroke-linejoin:miter;stroke-dasharray:none;stroke-opacity:1"
         d="M 590.77277,437.4778 V 223.0808"
         id="path1718" /><path
         style="fill:#4d4d4d;stroke:#000000;stroke-width:3;stroke-linecap:butt;stroke-linejoin:miter;stroke-dasharray:none;stroke-opacity:1"
         d="m 645.0765,463.96959 38.34915,0.59599"
         id="path1720" /><path
         style="fill:#4d4d4d;stroke:#000000;stroke-width:3;stroke-linecap:butt;stroke-linejoin:miter;stroke-dasharray:none;stroke-opacity:1"
         d="M 683.42565,348.917 V 464.56558"
         id="path1722" /><path
         style="fill:#4d4d4d;stroke:#000000;stroke-width:3;stroke-linecap:butt;stroke-linejoin:miter;stroke-dasharray:none;stroke-opacity:1"
         d="m 527.82535,463.96959 -38.57844,0.59599"
         id="path1724" /><path
         style="fill:#4d4d4d;stroke:#000000;stroke-width:3;stroke-linecap:butt;stroke-linejoin:miter;stroke-dasharray:none;stroke-opacity:1"
         d="M 489.24691,348.917 V 464.56558"
         id="path1726" /><path
         style="fill:#4d4d4d;stroke:#000000;stroke-width:3;stroke-linecap:butt;stroke-linejoin:miter;stroke-dasharray:none;stroke-opacity:1"
         d="m 547.48462,322.60049 77.70338,-10e-4"
         id="path1742" /><path
         style="fill:#4d4d4d;stroke:#000000;stroke-width:3;stroke-linecap:butt;stroke-linejoin:miter;stroke-dasharray:none;stroke-opacity:1"
         d="m 590.77277,490.46139 v 84.55463"
         id="path1744" /><path
         style="fill:#4d4d4d;stroke:#000000;stroke-width:3;stroke-linecap:butt;stroke-linejoin:miter;stroke-dasharray:none;stroke-opacity:1"
         d="m 590.77277,628.07549 v 84.08184"
         id="path1746" /><path
         style="fill:#4d4d4d;stroke:#000000;stroke-width:3;stroke-linecap:butt;stroke-linejoin:miter;stroke-dasharray:none;stroke-opacity:1"
         d="M 590.77277,765.52398 V 850.3217"
         id="path1748" /><path
         style="fill:#4d4d4d;stroke:#000000;stroke-width:3;stroke-linecap:butt;stroke-linejoin:miter;stroke-dasharray:none;stroke-opacity:1"
         d="M 527.9045,601.54574 489.24691,601.5"
         id="path1758" /><path
         style="fill:#4d4d4d;stroke:#000000;stroke-width:3;stroke-linecap:butt;stroke-linejoin:miter;stroke-dasharray:none;stroke-opacity:1"
         d="M 489.24691,601.5 V 464.56558"
         id="path1762" /><path
         style="fill:#808080;stroke:#000000;stroke-width:1.0344px;stroke-linecap:butt;stroke-linejoin:miter;stroke-dasharray:1.0344, 2.0688;stroke-dashoffset:0;stroke-opacity:1"
         d="M 255,0 V 973.19474"
         id="path1764" /><path
         style="fill:none;stroke:#4d4d4d;stroke-width:3;stroke-linecap:butt;stroke-linejoin:miter;stroke-dasharray:none;stroke-opacity:1"
         d="m 645.32359,601.54574 38.12537,10e-6"
         id="path1766" /><path
         style="fill:none;stroke:#4d4d4d;stroke-width:3;stroke-linecap:butt;stroke-linejoin:miter;stroke-dasharray:none;stroke-opacity:1"
         d="m 683.44896,601.54575 -0.0233,-136.98017"
         id="path1768" /><path
         style="fill:none;stroke:#4d4d4d;stroke-width:3;stroke-linecap:butt;stroke-linejoin:miter;stroke-dasharray:none;stroke-opacity:1"
         d="m 683.44896,601.54575 v 137.2949 l -38.23997,-10e-6"
         id="path1770" /><text
         xml:space="preserve"
         style="font-style:normal;font-weight:normal;font-size:40px;line-height:1.25;font-family:sans-serif;fill:#000000;fill-opacity:1;stroke:none"
         x="104.93343"
         y="54.117138"
         id="text1846"><tspan
           sodipodi:role="line"
           x="104.93343"
           y="54.117138"
           id="tspan1848">LTE</tspan></text><text
         xml:space="preserve"
         style="font-style:normal;font-weight:normal;font-size:40px;line-height:1.25;font-family:sans-serif;fill:#000000;fill-opacity:1;stroke:none"
         x="529.01276"
         y="54.137138"
         id="text1854"><tspan
           sodipodi:role="line"
           id="tspan1852"
           x="529.01276"
           y="54.137138">O-RAN</tspan></text></g></g></svg>
